{
  "nbformat": 4,
  "nbformat_minor": 0,
  "metadata": {
    "colab": {
      "provenance": [],
      "gpuType": "T4"
    },
    "kernelspec": {
      "name": "python3",
      "display_name": "Python 3"
    },
    "language_info": {
      "name": "python"
    },
    "accelerator": "GPU"
  },
  "cells": [
    {
      "cell_type": "code",
      "source": [
        "!python --version\n",
        "!apt-get update\n",
        "!apt install ffmpeg &> /dev/null"
      ],
      "metadata": {
        "colab": {
          "base_uri": "https://localhost:8080/"
        },
        "id": "kiXa-uQ2_uLo",
        "outputId": "d906428c-4492-4001-93f6-938307127a61"
      },
      "execution_count": null,
      "outputs": [
        {
          "output_type": "stream",
          "name": "stdout",
          "text": [
            "Python 3.10.6\n",
            "Hit:1 https://cloud.r-project.org/bin/linux/ubuntu jammy-cran40/ InRelease\n",
            "Hit:2 https://developer.download.nvidia.com/compute/cuda/repos/ubuntu2204/x86_64  InRelease\n",
            "Hit:3 http://security.ubuntu.com/ubuntu jammy-security InRelease\n",
            "Hit:4 http://archive.ubuntu.com/ubuntu jammy InRelease\n",
            "Hit:5 http://archive.ubuntu.com/ubuntu jammy-updates InRelease\n",
            "Hit:6 http://archive.ubuntu.com/ubuntu jammy-backports InRelease\n",
            "Hit:7 https://ppa.launchpadcontent.net/c2d4u.team/c2d4u4.0+/ubuntu jammy InRelease\n",
            "Hit:8 https://ppa.launchpadcontent.net/deadsnakes/ppa/ubuntu jammy InRelease\n",
            "Hit:9 https://ppa.launchpadcontent.net/graphics-drivers/ppa/ubuntu jammy InRelease\n",
            "Hit:10 https://ppa.launchpadcontent.net/ubuntugis/ppa/ubuntu jammy InRelease\n",
            "Reading package lists... Done\n"
          ]
        }
      ]
    },
    {
      "cell_type": "code",
      "source": [
        "!git clone https://github.com/Zz-ww/SadTalker-Video-Lip-Sync.git"
      ],
      "metadata": {
        "colab": {
          "base_uri": "https://localhost:8080/"
        },
        "id": "HgwT3EfE_y0r",
        "outputId": "2eb516b1-ba40-4826-c6aa-f3281d83485b"
      },
      "execution_count": null,
      "outputs": [
        {
          "output_type": "stream",
          "name": "stdout",
          "text": [
            "Cloning into 'SadTalker-Video-Lip-Sync'...\n",
            "remote: Enumerating objects: 314, done.\u001b[K\n",
            "remote: Counting objects: 100% (32/32), done.\u001b[K\n",
            "remote: Compressing objects: 100% (15/15), done.\u001b[K\n",
            "remote: Total 314 (delta 24), reused 17 (delta 17), pack-reused 282\u001b[K\n",
            "Receiving objects: 100% (314/314), 4.56 MiB | 20.11 MiB/s, done.\n",
            "Resolving deltas: 100% (59/59), done.\n"
          ]
        }
      ]
    },
    {
      "cell_type": "code",
      "source": [
        "%cd SadTalker-Video-Lip-Sync"
      ],
      "metadata": {
        "colab": {
          "base_uri": "https://localhost:8080/"
        },
        "id": "MJfnpAVTACEg",
        "outputId": "a980ed0a-b877-4be8-a815-ebe69d6a5d8f"
      },
      "execution_count": null,
      "outputs": [
        {
          "output_type": "stream",
          "name": "stdout",
          "text": [
            "/content/SadTalker-Video-Lip-Sync\n"
          ]
        }
      ]
    },
    {
      "cell_type": "code",
      "source": [
        "!pip install -r requirements.txt\n"
      ],
      "metadata": {
        "id": "SjgsGu4kANqe"
      },
      "execution_count": null,
      "outputs": []
    },
    {
      "cell_type": "code",
      "source": [
        "!gdown https://drive.google.com/u/0/uc?id=1lW4mf5YNtS4MAD7ZkAauDDWp2N3_Qzs7&export=download\n"
      ],
      "metadata": {
        "id": "cANkCoKkAXQb"
      },
      "execution_count": null,
      "outputs": []
    },
    {
      "cell_type": "code",
      "source": [
        "!tar -xf checkpoints.tar.gz"
      ],
      "metadata": {
        "id": "bkcbn4L9lzt2"
      },
      "execution_count": null,
      "outputs": []
    },
    {
      "cell_type": "code",
      "source": [
        "!pip install Ninja\n"
      ],
      "metadata": {
        "colab": {
          "base_uri": "https://localhost:8080/"
        },
        "id": "jDNb2zgxnjPs",
        "outputId": "9447d74a-3b80-4d51-9600-84703f395f02"
      },
      "execution_count": null,
      "outputs": [
        {
          "output_type": "stream",
          "name": "stdout",
          "text": [
            "Collecting Ninja\n",
            "  Downloading ninja-1.11.1-py2.py3-none-manylinux_2_12_x86_64.manylinux2010_x86_64.whl (145 kB)\n",
            "\u001b[?25l     \u001b[90m━━━━━━━━━━━━━━━━━━━━━━━━━━━━━━━━━━━━━━━━\u001b[0m \u001b[32m0.0/146.0 kB\u001b[0m \u001b[31m?\u001b[0m eta \u001b[36m-:--:--\u001b[0m\r\u001b[2K     \u001b[91m━━━━━━━━━━━━━━━━━━━━━━━━━━━━━━━━\u001b[0m\u001b[91m╸\u001b[0m\u001b[90m━━━━━━\u001b[0m \u001b[32m122.9/146.0 kB\u001b[0m \u001b[31m3.5 MB/s\u001b[0m eta \u001b[36m0:00:01\u001b[0m\r\u001b[2K     \u001b[90m━━━━━━━━━━━━━━━━━━━━━━━━━━━━━━━━━━━━━━━\u001b[0m \u001b[32m146.0/146.0 kB\u001b[0m \u001b[31m3.1 MB/s\u001b[0m eta \u001b[36m0:00:00\u001b[0m\n",
            "\u001b[?25hInstalling collected packages: Ninja\n",
            "Successfully installed Ninja-1.11.1\n"
          ]
        }
      ]
    },
    {
      "cell_type": "code",
      "source": [
        "!pip install paddlepaddle-gpu"
      ],
      "metadata": {
        "colab": {
          "base_uri": "https://localhost:8080/"
        },
        "id": "CJ1GCsjerxGQ",
        "outputId": "e2ab2958-cbcd-4228-afc3-44f554d3b8cb"
      },
      "execution_count": null,
      "outputs": [
        {
          "output_type": "stream",
          "name": "stdout",
          "text": [
            "Collecting paddlepaddle-gpu\n",
            "  Downloading paddlepaddle_gpu-2.5.1-cp310-cp310-manylinux1_x86_64.whl (541.0 MB)\n",
            "\u001b[2K     \u001b[90m━━━━━━━━━━━━━━━━━━━━━━━━━━━━━━━━━━━━━━━\u001b[0m \u001b[32m541.0/541.0 MB\u001b[0m \u001b[31m1.3 MB/s\u001b[0m eta \u001b[36m0:00:00\u001b[0m\n",
            "\u001b[?25hRequirement already satisfied: httpx in /usr/local/lib/python3.10/dist-packages (from paddlepaddle-gpu) (0.24.1)\n",
            "Requirement already satisfied: numpy>=1.13 in /usr/local/lib/python3.10/dist-packages (from paddlepaddle-gpu) (1.23.4)\n",
            "Requirement already satisfied: Pillow in /usr/local/lib/python3.10/dist-packages (from paddlepaddle-gpu) (9.4.0)\n",
            "Requirement already satisfied: decorator in /usr/local/lib/python3.10/dist-packages (from paddlepaddle-gpu) (4.4.2)\n",
            "Collecting astor (from paddlepaddle-gpu)\n",
            "  Downloading astor-0.8.1-py2.py3-none-any.whl (27 kB)\n",
            "Collecting paddle-bfloat==0.1.7 (from paddlepaddle-gpu)\n",
            "  Downloading paddle_bfloat-0.1.7-cp310-cp310-manylinux_2_17_x86_64.manylinux2014_x86_64.whl (383 kB)\n",
            "\u001b[2K     \u001b[90m━━━━━━━━━━━━━━━━━━━━━━━━━━━━━━━━━━━━━━\u001b[0m \u001b[32m383.2/383.2 kB\u001b[0m \u001b[31m38.2 MB/s\u001b[0m eta \u001b[36m0:00:00\u001b[0m\n",
            "\u001b[?25hRequirement already satisfied: opt-einsum==3.3.0 in /usr/local/lib/python3.10/dist-packages (from paddlepaddle-gpu) (3.3.0)\n",
            "Requirement already satisfied: protobuf>=3.20.2 in /usr/local/lib/python3.10/dist-packages (from paddlepaddle-gpu) (3.20.3)\n",
            "Requirement already satisfied: certifi in /usr/local/lib/python3.10/dist-packages (from httpx->paddlepaddle-gpu) (2023.7.22)\n",
            "Requirement already satisfied: httpcore<0.18.0,>=0.15.0 in /usr/local/lib/python3.10/dist-packages (from httpx->paddlepaddle-gpu) (0.17.3)\n",
            "Requirement already satisfied: idna in /usr/local/lib/python3.10/dist-packages (from httpx->paddlepaddle-gpu) (3.4)\n",
            "Requirement already satisfied: sniffio in /usr/local/lib/python3.10/dist-packages (from httpx->paddlepaddle-gpu) (1.3.0)\n",
            "Requirement already satisfied: h11<0.15,>=0.13 in /usr/local/lib/python3.10/dist-packages (from httpcore<0.18.0,>=0.15.0->httpx->paddlepaddle-gpu) (0.14.0)\n",
            "Requirement already satisfied: anyio<5.0,>=3.0 in /usr/local/lib/python3.10/dist-packages (from httpcore<0.18.0,>=0.15.0->httpx->paddlepaddle-gpu) (3.7.1)\n",
            "Requirement already satisfied: exceptiongroup in /usr/local/lib/python3.10/dist-packages (from anyio<5.0,>=3.0->httpcore<0.18.0,>=0.15.0->httpx->paddlepaddle-gpu) (1.1.2)\n",
            "Installing collected packages: paddle-bfloat, astor, paddlepaddle-gpu\n",
            "Successfully installed astor-0.8.1 paddle-bfloat-0.1.7 paddlepaddle-gpu-2.5.1\n"
          ]
        }
      ]
    },
    {
      "cell_type": "code",
      "source": [
        "!wget http://nz2.archive.ubuntu.com/ubuntu/pool/main/o/openssl/libssl1.1_1.1.1f-1ubuntu2.19_amd64.deb\n",
        "!sudo dpkg -i libssl1.1_1.1.1f-1ubuntu2.19_amd64.deb"
      ],
      "metadata": {
        "colab": {
          "base_uri": "https://localhost:8080/"
        },
        "id": "-90Zj8SBv2DN",
        "outputId": "7d6ed614-2727-42c5-da9d-e1d92511b570"
      },
      "execution_count": null,
      "outputs": [
        {
          "output_type": "stream",
          "name": "stdout",
          "text": [
            "--2023-07-28 18:25:15--  http://nz2.archive.ubuntu.com/ubuntu/pool/main/o/openssl/libssl1.1_1.1.1f-1ubuntu2.19_amd64.deb\n",
            "Resolving nz2.archive.ubuntu.com (nz2.archive.ubuntu.com)... 91.189.91.82, 91.189.91.81, 185.125.190.36, ...\n",
            "Connecting to nz2.archive.ubuntu.com (nz2.archive.ubuntu.com)|91.189.91.82|:80... connected.\n",
            "HTTP request sent, awaiting response... 200 OK\n",
            "Length: 1321244 (1.3M) [application/vnd.debian.binary-package]\n",
            "Saving to: ‘libssl1.1_1.1.1f-1ubuntu2.19_amd64.deb’\n",
            "\n",
            "libssl1.1_1.1.1f-1u 100%[===================>]   1.26M  5.96MB/s    in 0.2s    \n",
            "\n",
            "2023-07-28 18:25:16 (5.96 MB/s) - ‘libssl1.1_1.1.1f-1ubuntu2.19_amd64.deb’ saved [1321244/1321244]\n",
            "\n",
            "Selecting previously unselected package libssl1.1:amd64.\n",
            "(Reading database ... 120493 files and directories currently installed.)\n",
            "Preparing to unpack libssl1.1_1.1.1f-1ubuntu2.19_amd64.deb ...\n",
            "Unpacking libssl1.1:amd64 (1.1.1f-1ubuntu2.19) ...\n",
            "Setting up libssl1.1:amd64 (1.1.1f-1ubuntu2.19) ...\n",
            "debconf: unable to initialize frontend: Dialog\n",
            "debconf: (No usable dialog-like program is installed, so the dialog based frontend cannot be used. at /usr/share/perl5/Debconf/FrontEnd/Dialog.pm line 78.)\n",
            "debconf: falling back to frontend: Readline\n",
            "debconf: unable to initialize frontend: Readline\n",
            "debconf: (This frontend requires a controlling tty.)\n",
            "debconf: falling back to frontend: Teletype\n",
            "Processing triggers for libc-bin (2.35-0ubuntu3.1) ...\n"
          ]
        }
      ]
    },
    {
      "cell_type": "code",
      "source": [
        "!python inference.py --driven_audio \"/content/kllll.wav\" \\\n",
        "                     --source_video \"/content/kl.mp4\" \\\n",
        "                    --enhancer \"lip\" \\\n",
        "                     --use_DAIN"
      ],
      "metadata": {
        "colab": {
          "base_uri": "https://localhost:8080/"
        },
        "id": "NgH_C9zmmFoJ",
        "outputId": "92bec3b2-8b93-433b-b134-79c164055242"
      },
      "execution_count": null,
      "outputs": [
        {
          "output_type": "stream",
          "name": "stdout",
          "text": [
            "./checkpoints/epoch_20.pth\n",
            "./checkpoints/auido2pose_00140-model.pth\n",
            "./checkpoints/auido2exp_00300-model.pth\n",
            "./checkpoints/facevid2vid_00189-model.pth.tar\n",
            "./checkpoints/mapping_00109-model.pth.tar\n",
            "3DMM Extraction for source image\n",
            "landmark Det:: 100% 551/551 [00:40<00:00, 13.51it/s]\n",
            "3DMM Extraction In Video:: 100% 551/551 [00:05<00:00, 99.15it/s] \n",
            "mel:: 100% 892/892 [00:00<00:00, 41066.01it/s]\n",
            "audio2exp:: 100% 90/90 [00:00<00:00, 255.63it/s]\n",
            "Face Renderer::  62% 551/892 [02:32<01:34,  3.61it/s]\n",
            "ffmpeg version 4.4.2-0ubuntu0.22.04.1 Copyright (c) 2000-2021 the FFmpeg developers\n",
            "  built with gcc 11 (Ubuntu 11.2.0-19ubuntu1)\n",
            "  configuration: --prefix=/usr --extra-version=0ubuntu0.22.04.1 --toolchain=hardened --libdir=/usr/lib/x86_64-linux-gnu --incdir=/usr/include/x86_64-linux-gnu --arch=amd64 --enable-gpl --disable-stripping --enable-gnutls --enable-ladspa --enable-libaom --enable-libass --enable-libbluray --enable-libbs2b --enable-libcaca --enable-libcdio --enable-libcodec2 --enable-libdav1d --enable-libflite --enable-libfontconfig --enable-libfreetype --enable-libfribidi --enable-libgme --enable-libgsm --enable-libjack --enable-libmp3lame --enable-libmysofa --enable-libopenjpeg --enable-libopenmpt --enable-libopus --enable-libpulse --enable-librabbitmq --enable-librubberband --enable-libshine --enable-libsnappy --enable-libsoxr --enable-libspeex --enable-libsrt --enable-libssh --enable-libtheora --enable-libtwolame --enable-libvidstab --enable-libvorbis --enable-libvpx --enable-libwebp --enable-libx265 --enable-libxml2 --enable-libxvid --enable-libzimg --enable-libzmq --enable-libzvbi --enable-lv2 --enable-omx --enable-openal --enable-opencl --enable-opengl --enable-sdl2 --enable-pocketsphinx --enable-librsvg --enable-libmfx --enable-libdc1394 --enable-libdrm --enable-libiec61883 --enable-chromaprint --enable-frei0r --enable-libx264 --enable-shared\n",
            "  libavutil      56. 70.100 / 56. 70.100\n",
            "  libavcodec     58.134.100 / 58.134.100\n",
            "  libavformat    58. 76.100 / 58. 76.100\n",
            "  libavdevice    58. 13.100 / 58. 13.100\n",
            "  libavfilter     7.110.100 /  7.110.100\n",
            "  libswscale      5.  9.100 /  5.  9.100\n",
            "  libswresample   3.  9.100 /  3.  9.100\n",
            "  libpostproc    55.  9.100 / 55.  9.100\n",
            "Input #0, mov,mp4,m4a,3gp,3g2,mj2, from './results/2023_07_28_19.14.50/temp_kl##kllll.mp4':\n",
            "  Metadata:\n",
            "    major_brand     : isom\n",
            "    minor_version   : 512\n",
            "    compatible_brands: isomiso2avc1mp41\n",
            "    encoder         : Lavf58.29.100\n",
            "  Duration: 00:00:22.04, start: 0.000000, bitrate: 193 kb/s\n",
            "  Stream #0:0(und): Video: h264 (High) (avc1 / 0x31637661), yuv420p, 256x256, 190 kb/s, 25 fps, 25 tbr, 12800 tbn, 50 tbc (default)\n",
            "    Metadata:\n",
            "      handler_name    : VideoHandler\n",
            "      vendor_id       : [0][0][0][0]\n",
            "\u001b[0;33mGuessed Channel Layout for Input Stream #1.0 : mono\n",
            "\u001b[0mInput #1, wav, from './results/2023_07_28_19.14.50/kllll.wav':\n",
            "  Duration: 00:00:22.04, bitrate: 256 kb/s\n",
            "  Stream #1:0: Audio: pcm_s16le ([1][0][0][0] / 0x0001), 16000 Hz, mono, s16, 256 kb/s\n",
            "Stream mapping:\n",
            "  Stream #0:0 -> #0:0 (copy)\n",
            "  Stream #1:0 -> #0:1 (pcm_s16le (native) -> aac (native))\n",
            "Press [q] to stop, [?] for help\n",
            "Output #0, mp4, to '00218793-771f-4ed5-a72a-c00e99adec58.mp4':\n",
            "  Metadata:\n",
            "    major_brand     : isom\n",
            "    minor_version   : 512\n",
            "    compatible_brands: isomiso2avc1mp41\n",
            "    encoder         : Lavf58.76.100\n",
            "  Stream #0:0(und): Video: h264 (High) (avc1 / 0x31637661), yuv420p, 256x256, q=2-31, 190 kb/s, 25 fps, 25 tbr, 12800 tbn, 12800 tbc (default)\n",
            "    Metadata:\n",
            "      handler_name    : VideoHandler\n",
            "      vendor_id       : [0][0][0][0]\n",
            "  Stream #0:1: Audio: aac (LC) (mp4a / 0x6134706D), 16000 Hz, mono, fltp, 69 kb/s\n",
            "    Metadata:\n",
            "      encoder         : Lavc58.134.100 aac\n",
            "frame=  551 fps=0.0 q=-1.0 Lsize=     726kB time=00:00:22.01 bitrate= 270.0kbits/s speed= 200x    \n",
            "video:514kB audio:197kB subtitle:0kB other streams:0kB global headers:0kB muxing overhead: 2.128827%\n",
            "\u001b[1;36m[aac @ 0x590654fbd5c0] \u001b[0mQavg: 17740.066\n",
            "The generated video is named kl##kllll.mp4 in ./results/2023_07_28_19.14.50\n",
            "OpenCV: FFMPEG: tag 0x5634504d/'MP4V' is not supported with codec id 12 and format 'mp4 / MP4 (MPEG-4 Part 14)'\n",
            "OpenCV: FFMPEG: fallback to use tag 0x7634706d/'mp4v'\n",
            "faceClone:: 100% 551/551 [09:39<00:00,  1.05s/it]\n",
            "ffmpeg version 4.4.2-0ubuntu0.22.04.1 Copyright (c) 2000-2021 the FFmpeg developers\n",
            "  built with gcc 11 (Ubuntu 11.2.0-19ubuntu1)\n",
            "  configuration: --prefix=/usr --extra-version=0ubuntu0.22.04.1 --toolchain=hardened --libdir=/usr/lib/x86_64-linux-gnu --incdir=/usr/include/x86_64-linux-gnu --arch=amd64 --enable-gpl --disable-stripping --enable-gnutls --enable-ladspa --enable-libaom --enable-libass --enable-libbluray --enable-libbs2b --enable-libcaca --enable-libcdio --enable-libcodec2 --enable-libdav1d --enable-libflite --enable-libfontconfig --enable-libfreetype --enable-libfribidi --enable-libgme --enable-libgsm --enable-libjack --enable-libmp3lame --enable-libmysofa --enable-libopenjpeg --enable-libopenmpt --enable-libopus --enable-libpulse --enable-librabbitmq --enable-librubberband --enable-libshine --enable-libsnappy --enable-libsoxr --enable-libspeex --enable-libsrt --enable-libssh --enable-libtheora --enable-libtwolame --enable-libvidstab --enable-libvorbis --enable-libvpx --enable-libwebp --enable-libx265 --enable-libxml2 --enable-libxvid --enable-libzimg --enable-libzmq --enable-libzvbi --enable-lv2 --enable-omx --enable-openal --enable-opencl --enable-opengl --enable-sdl2 --enable-pocketsphinx --enable-librsvg --enable-libmfx --enable-libdc1394 --enable-libdrm --enable-libiec61883 --enable-chromaprint --enable-frei0r --enable-libx264 --enable-shared\n",
            "  libavutil      56. 70.100 / 56. 70.100\n",
            "  libavcodec     58.134.100 / 58.134.100\n",
            "  libavformat    58. 76.100 / 58. 76.100\n",
            "  libavdevice    58. 13.100 / 58. 13.100\n",
            "  libavfilter     7.110.100 /  7.110.100\n",
            "  libswscale      5.  9.100 /  5.  9.100\n",
            "  libswresample   3.  9.100 /  3.  9.100\n",
            "  libpostproc    55.  9.100 / 55.  9.100\n",
            "Input #0, mov,mp4,m4a,3gp,3g2,mj2, from 'fb6e311a-f5a9-4f63-9bc2-fd1b64f659de.mp4':\n",
            "  Metadata:\n",
            "    major_brand     : isom\n",
            "    minor_version   : 512\n",
            "    compatible_brands: isomiso2mp41\n",
            "    encoder         : Lavf59.27.100\n",
            "  Duration: 00:00:22.04, start: 0.000000, bitrate: 3824 kb/s\n",
            "  Stream #0:0(und): Video: mpeg4 (Simple Profile) (mp4v / 0x7634706D), yuv420p, 1920x1080 [SAR 1:1 DAR 16:9], 3823 kb/s, 25 fps, 25 tbr, 12800 tbn, 25 tbc (default)\n",
            "    Metadata:\n",
            "      handler_name    : VideoHandler\n",
            "      vendor_id       : [0][0][0][0]\n",
            "\u001b[0;33mGuessed Channel Layout for Input Stream #1.0 : mono\n",
            "\u001b[0mInput #1, wav, from './results/2023_07_28_19.14.50/kllll.wav':\n",
            "  Duration: 00:00:22.04, bitrate: 256 kb/s\n",
            "  Stream #1:0: Audio: pcm_s16le ([1][0][0][0] / 0x0001), 16000 Hz, mono, s16, 256 kb/s\n",
            "Stream mapping:\n",
            "  Stream #0:0 -> #0:0 (copy)\n",
            "  Stream #1:0 -> #0:1 (pcm_s16le (native) -> aac (native))\n",
            "Press [q] to stop, [?] for help\n",
            "Output #0, mp4, to './results/2023_07_28_19.14.50/kl##kllll_full.mp4':\n",
            "  Metadata:\n",
            "    major_brand     : isom\n",
            "    minor_version   : 512\n",
            "    compatible_brands: isomiso2mp41\n",
            "    encoder         : Lavf58.76.100\n",
            "  Stream #0:0(und): Video: mpeg4 (Simple Profile) (mp4v / 0x7634706D), yuv420p, 1920x1080 [SAR 1:1 DAR 16:9], q=2-31, 3823 kb/s, 25 fps, 25 tbr, 12800 tbn, 12800 tbc (default)\n",
            "    Metadata:\n",
            "      handler_name    : VideoHandler\n",
            "      vendor_id       : [0][0][0][0]\n",
            "  Stream #0:1: Audio: aac (LC) (mp4a / 0x6134706D), 16000 Hz, mono, fltp, 69 kb/s\n",
            "    Metadata:\n",
            "      encoder         : Lavc58.134.100 aac\n",
            "frame=  551 fps=0.0 q=-1.0 Lsize=   10493kB time=00:00:22.01 bitrate=3904.5kbits/s speed= 188x    \n",
            "video:10286kB audio:197kB subtitle:0kB other streams:0kB global headers:0kB muxing overhead: 0.105180%\n",
            "\u001b[1;36m[aac @ 0x58d3c5e824c0] \u001b[0mQavg: 17740.066\n",
            "The generated video is named ./results/2023_07_28_19.14.50/kl##kllll_full.mp4\n",
            "Fri Jul 28 19:29:12-WARNING: The old way to load inference model is deprecated. Please specify path_prefix. model path: /content/SadTalker-Video-Lip-Sync/checkpoints/DAIN_weight/model, params path: /content/SadTalker-Video-Lip-Sync/checkpoints/DAIN_weight/params\n",
            "I0728 19:29:12.987565 27874 interpretercore.cc:237] New Executor is Running.\n",
            "W0728 19:29:12.991371 27874 gpu_resources.cc:119] Please NOTE: device: 0, GPU Compute Capability: 7.5, Driver API Version: 12.0, Runtime API Version: 11.8\n",
            "W0728 19:29:12.996109 27874 gpu_resources.cc:149] device: 0, cuDNN Version: 8.7.\n",
            "Old fps (frame rate):  25.0\n",
            "New fps (frame rate):  50\n",
            "100% 550/550 [50:53<00:00,  5.55s/it]\n",
            "ffmpeg version 4.4.2-0ubuntu0.22.04.1 Copyright (c) 2000-2021 the FFmpeg developers\n",
            "  built with gcc 11 (Ubuntu 11.2.0-19ubuntu1)\n",
            "  configuration: --prefix=/usr --extra-version=0ubuntu0.22.04.1 --toolchain=hardened --libdir=/usr/lib/x86_64-linux-gnu --incdir=/usr/include/x86_64-linux-gnu --arch=amd64 --enable-gpl --disable-stripping --enable-gnutls --enable-ladspa --enable-libaom --enable-libass --enable-libbluray --enable-libbs2b --enable-libcaca --enable-libcdio --enable-libcodec2 --enable-libdav1d --enable-libflite --enable-libfontconfig --enable-libfreetype --enable-libfribidi --enable-libgme --enable-libgsm --enable-libjack --enable-libmp3lame --enable-libmysofa --enable-libopenjpeg --enable-libopenmpt --enable-libopus --enable-libpulse --enable-librabbitmq --enable-librubberband --enable-libshine --enable-libsnappy --enable-libsoxr --enable-libspeex --enable-libsrt --enable-libssh --enable-libtheora --enable-libtwolame --enable-libvidstab --enable-libvorbis --enable-libvpx --enable-libwebp --enable-libx265 --enable-libxml2 --enable-libxvid --enable-libzimg --enable-libzmq --enable-libzvbi --enable-lv2 --enable-omx --enable-openal --enable-opencl --enable-opengl --enable-sdl2 --enable-pocketsphinx --enable-librsvg --enable-libmfx --enable-libdc1394 --enable-libdrm --enable-libiec61883 --enable-chromaprint --enable-frei0r --enable-libx264 --enable-shared\n",
            "  libavutil      56. 70.100 / 56. 70.100\n",
            "  libavcodec     58.134.100 / 58.134.100\n",
            "  libavformat    58. 76.100 / 58. 76.100\n",
            "  libavdevice    58. 13.100 / 58. 13.100\n",
            "  libavfilter     7.110.100 /  7.110.100\n",
            "  libswscale      5.  9.100 /  5.  9.100\n",
            "  libswresample   3.  9.100 /  3.  9.100\n",
            "  libpostproc    55.  9.100 / 55.  9.100\n",
            "Input #0, avi, from 'dian_output/DAIN/videos-output/fb6e311a-f5a9-4f63-9bc2-fd1b64f659de.avi':\n",
            "  Metadata:\n",
            "    software        : Lavf59.27.100\n",
            "  Duration: 00:00:22.02, start: 0.000000, bitrate: 5793 kb/s\n",
            "  Stream #0:0: Video: mpeg4 (Simple Profile) (DIVX / 0x58564944), yuv420p, 1920x1080 [SAR 1:1 DAR 16:9], 5783 kb/s, 50 fps, 50 tbr, 50 tbn, 50 tbc\n",
            "\u001b[0;33mGuessed Channel Layout for Input Stream #1.0 : mono\n",
            "\u001b[0mInput #1, wav, from './results/2023_07_28_19.14.50/kllll.wav':\n",
            "  Duration: 00:00:22.04, bitrate: 256 kb/s\n",
            "  Stream #1:0: Audio: pcm_s16le ([1][0][0][0] / 0x0001), 16000 Hz, mono, s16, 256 kb/s\n",
            "Stream mapping:\n",
            "  Stream #0:0 -> #0:0 (copy)\n",
            "  Stream #1:0 -> #0:1 (pcm_s16le (native) -> aac (native))\n",
            "Press [q] to stop, [?] for help\n",
            "Output #0, mp4, to './results/2023_07_28_19.14.50/kl##kllll_full_dain.mp4':\n",
            "  Metadata:\n",
            "    software        : Lavf59.27.100\n",
            "    encoder         : Lavf58.76.100\n",
            "  Stream #0:0: Video: mpeg4 (Simple Profile) (mp4v / 0x7634706D), yuv420p, 1920x1080 [SAR 1:1 DAR 16:9], q=2-31, 5783 kb/s, 50 fps, 50 tbr, 12800 tbn, 50 tbc\n",
            "  Stream #0:1: Audio: aac (LC) (mp4a / 0x6134706D), 16000 Hz, mono, fltp, 69 kb/s\n",
            "    Metadata:\n",
            "      encoder         : Lavc58.134.100 aac\n",
            "frame= 1101 fps=0.0 q=-1.0 Lsize=   15740kB time=00:00:22.01 bitrate=5856.6kbits/s speed=92.5x    \n",
            "video:15531kB audio:197kB subtitle:0kB other streams:0kB global headers:0kB muxing overhead: 0.074622%\n",
            "\u001b[1;36m[aac @ 0x5996fba32ac0] \u001b[0mQavg: 17740.066\n"
          ]
        }
      ]
    }
  ]
}